<?xml version="1.0" standalone="no"?>
<!DOCTYPE svg PUBLIC "-//W3C//DTD SVG 20010904//EN"
 "http://www.w3.org/TR/2001/REC-SVG-20010904/DTD/svg10.dtd">
<svg version="1.0" xmlns="http://www.w3.org/2000/svg"
 width="1024.000000pt" height="1024.000000pt" viewBox="0 0 1024.000000 1024.000000"
 preserveAspectRatio="xMidYMid meet">
<metadata>
Created by potrace 1.14, written by Peter Selinger 2001-2017
</metadata>
<g transform="translate(0.000000,1024.000000) scale(0.100000,-0.100000)"
fill="#000000" stroke="none">
<path d="M1708 7956 c-135 -141 -180 -166 -298 -167 -84 0 -132 13 -249 68
-97 45 -135 49 -172 14 -67 -63 -39 -100 131 -177 163 -73 275 -166 330 -274
39 -77 50 -136 46 -255 -10 -294 -123 -439 -366 -470 -25 -3 -56 -8 -70 -10
-14 -2 -50 -7 -80 -10 -30 -3 -66 -8 -80 -10 -44 -8 -84 -14 -135 -20 -27 -4
-58 -8 -67 -11 -9 -3 -25 -7 -36 -9 -43 -8 -111 -46 -136 -76 -57 -68 -70
-133 -38 -196 41 -79 91 -102 223 -101 164 1 257 -19 398 -88 74 -37 110 -62
166 -118 121 -121 170 -237 169 -401 -1 -109 -23 -195 -84 -330 -18 -38 -43
-95 -57 -125 -67 -147 -93 -205 -149 -328 -24 -51 -30 -74 -21 -77 17 -5 131
-14 200 -14 60 -1 69 -10 47 -49 -11 -20 -36 -78 -142 -322 -44 -102 -91 -209
-104 -238 -13 -29 -24 -55 -24 -57 0 -2 -13 -32 -29 -67 -16 -35 -59 -133 -96
-218 -65 -148 -90 -205 -122 -278 -8 -18 -77 -178 -155 -355 -77 -177 -169
-388 -204 -469 -35 -81 -64 -149 -64 -151 0 -3 44 -10 98 -17 109 -13 141 -17
192 -24 19 -3 73 -10 120 -16 47 -6 99 -13 115 -16 17 -2 46 -6 65 -8 65 -8
285 -37 310 -41 14 -2 50 -7 80 -10 30 -4 64 -8 75 -9 11 -2 45 -6 75 -10 30
-4 66 -9 80 -11 14 -2 43 -6 65 -9 53 -6 145 -18 170 -22 76 -10 268 -35 305
-40 25 -3 56 -7 70 -10 14 -2 50 -6 80 -9 30 -3 64 -8 75 -10 11 -2 43 -7 70
-10 28 -3 64 -8 80 -10 55 -8 253 -35 260 -35 6 0 65 200 149 510 21 77 99
354 136 485 18 61 33 115 34 120 5 21 29 107 86 310 33 116 107 381 165 590
193 693 186 672 238 725 67 70 132 109 237 144 95 31 112 33 515 51 61 2 166
7 235 10 69 3 170 8 225 10 226 10 361 17 380 21 60 11 85 19 135 42 142 66
274 192 327 314 14 31 43 176 77 378 29 177 56 240 138 321 64 64 155 113 228
123 37 5 592 12 1604 20 l180 1 18 30 c10 17 23 36 27 44 7 11 61 14 277 17
148 1 528 5 844 8 316 4 587 9 602 12 30 6 57 52 84 145 9 30 33 90 53 134
l37 80 0 491 -1 491 -78 96 -79 97 -1965 0 -1965 0 -26 -28 c-15 -16 -55 -60
-89 -98 l-62 -69 -481 1 c-264 0 -481 2 -483 5 -2 2 -29 46 -61 97 l-58 92
-1346 -1 -1347 -1 -107 -112z m3438 -1650 c179 -15 331 -145 390 -335 8 -25
17 -87 21 -136 13 -203 -81 -394 -235 -478 -94 -51 -150 -57 -514 -57 -183 0
-346 2 -361 5 -221 42 -374 244 -382 505 -8 243 97 407 306 479 40 14 87 19
174 20 66 1 120 3 121 4 4 4 422 -2 480 -7z"/>
<path d="M4399 6266 c-154 -40 -260 -156 -299 -329 -14 -62 -4 -203 19 -277
25 -82 80 -172 133 -223 54 -51 152 -97 223 -104 l56 -6 -36 54 c-157 236
-187 486 -84 714 19 42 78 136 102 163 l21 22 -45 -1 c-25 -1 -65 -7 -90 -13z"/>
</g>
</svg>
